<?xml version="1.0" encoding="UTF-8"?>
<svg id="Layer_1" data-name="Layer 1" xmlns="http://www.w3.org/2000/svg" viewBox="0 0 488.74 641.56">
  <path d="M141.31,641.51c-45.16,0-89.82,0-134.48,0-6.8,0-6.81-.02-6.81-6.93C0,475.59,0,316.61,0,157.63q0-6.81,6.89-6.83c32.83,0,65.66,0,98.49,0,6.69,0,7.05-.23,6.89-7.08-.43-18.44,1.23-36.56,7.44-54.08,13.07-36.85,37.33-63.69,73.39-78.62,43.38-17.97,85.71-13.98,124.71,12.06,32.44,21.66,51.63,52.55,57,91.68,1.34,9.81,1.46,19.58,1.55,29.4.06,6.5.15,6.63,6.82,6.63,33,.02,65.99.11,98.99-.09,5.02-.03,6.55,1.37,6.54,6.45-.12,159.48-.12,318.96.02,478.44,0,5.69-2.58,5.98-6.97,5.97-113.32-.07-226.64-.05-340.46-.05M151.35,209.64c0,16.16-.12,32.33.06,48.49.05,4.76-1.6,6.48-6.41,6.31-8.65-.31-17.33-.07-25.99-.1-6.42-.02-6.73-.36-6.72-6.82.01-20.66-.09-41.33.13-61.99.05-4.79-1.46-6.33-6.28-6.28-20.33.22-40.66.09-60.99.09q-6.51,0-6.53,6.68c0,133.48,0,266.95.01,400.43,0,6.49.01,6.52,6.71,6.52,132.64,0,265.29,0,397.93,0,6.72,0,6.74-.02,6.74-6.53,0-133.64-.03-267.29.08-400.93,0-4.73-1.23-6.33-6.13-6.27-20.33.25-40.66.1-60.99.1-6.62,0-6.64.01-6.64,6.69,0,20.66-.1,41.33.07,61.99.04,4.68-1.39,6.59-6.28,6.42-8.82-.3-17.66-.07-26.49-.1-6.18-.02-6.29-.16-6.3-6.6,0-20.66-.15-41.33.09-61.99.06-5.06-1.54-6.54-6.58-6.5-27.66.22-55.32.1-82.98.1-30.16,0-60.32.08-90.48-.07-4.47-.02-6.43,1.16-6.1,5.87.32,4.48.07,8.99.07,14.49M151.37,129.75c-.02,4.17-.04,8.33-.05,12.5q-.02,8.53,8.29,8.55c36.66,0,73.31.01,109.97.01,20.66,0,41.32-.02,61.98,0,3.05,0,5.64-.07,5.72-4.26.32-16.04-.31-31.82-6.09-47.18-16.85-44.78-66.47-70.21-113.57-55.94-38.53,11.68-65.22,46.35-66.26,86.32Z"/>
</svg>