<?xml version="1.0" encoding="UTF-8"?>
<svg id="Search_Icon_V1_Image" data-name="Search Icon V1 Image" xmlns="http://www.w3.org/2000/svg" viewBox="0 0 665 655">
  <path d="M665,631v2l-22,22h-1l-140.51-142c.59-1.4,20.18-20.86,21.54-21.56.77-.4,1.23-.67,1.98,0l139.99,139.56Z"/>
  <path d="M271.06,0c5.91,2.2,13.18.51,19.48,1.02,205.65,16.48,314.75,258.93,190.9,424.9C337.71,618.53,29.35,536.82,2.23,299.38c-.84-7.34-.44-15.19-2.12-22.38.25-6.63-.34-13.38,0-20C7.58,112.46,119.65,5.76,263.07,0h8ZM258.86,33.29C96.92,39.35-11.15,204.24,50.62,355.99c69.9,171.73,306.2,196.33,410.23,42.33,104.24-154.31-5.08-360.39-188.24-365.36l-13.74.34Z"/>
</svg>